<svg xmlns="http://www.w3.org/2000/svg" xmlns:xlink="http://www.w3.org/1999/xlink" viewBox="0 0 2239.44 1901.65"><defs><style>.cls-1{fill:none;}.cls-2{clip-path:url(#clip-path);}.cls-3{fill:#eff3f0;}.cls-4{fill:#e0436b;}.cls-5{fill:#7252a4;}.cls-6{fill:#f0c933;}.cls-7{fill:#453264;}.cls-8{fill:#0f90d1;}.cls-9{fill:#c4c8d4;}.cls-10{fill:#6759ae;}</style><clipPath id="clip-path" transform="translate(315.82 298.92)"><rect id="Shape" class="cls-1" width="1600" height="1201"/></clipPath></defs><g id="Capa_2" data-name="Capa 2"><g id="Background"><g id="Waimakariri"><g class="cls-2"><g id="Patterns"><g id="Waimakariri-2" data-name="Waimakariri"><g id="Shape-2" data-name="Shape"><path class="cls-3" d="M388.25,1001.56c176.6,161.73,428.17,126.23,607.92-63s143.71-485.36-64.75-607.75-438.32-118-607.92,63S211.65,839.83,388.25,1001.56Z" transform="translate(315.82 298.92)"/><path class="cls-3" d="M1398.29,151c95.29,52.23,213.23,56.87,283.09-29.4s56.38-213-30.1-283-206.76-36.83-283.09,29.4S1303,98.78,1398.29,151Z" transform="translate(315.82 298.92)"/><path class="cls-3" d="M1750.34,738.05c118.55,96,118.64,253.55,40.86,388.45s-209.78,259.06-301.87,372.78-262.31,142.94-388.45,40.79S955.07,1255.32,1060,1151.63s189.61-260.05,301.87-372.79S1631.78,642.05,1750.34,738.05Z" transform="translate(315.82 298.92)"/><path class="cls-4" d="M162.94,395.7c94.54,76.55,222.9,59.23,296.07-31.12s61.35-239.67-31.12-296.06S199.22-9.33,131.83,99.64,68.41,319.15,162.94,395.7Z" transform="translate(315.82 298.92)"/><path class="cls-4" d="M453,1086.22c30,24.28,70.7,18.77,93.92-9.9s19.48-76-9.85-93.92-72.53-24.69-93.92,9.89S423,1061.94,453,1086.22Z" transform="translate(315.82 298.92)"/><path class="cls-4" d="M49.43,114.29c19.69,16,46.43,12.33,61.68-6.5s12.79-49.94-6.47-61.68S57,29.9,43,52.61,29.74,98.35,49.43,114.29Z" transform="translate(315.82 298.92)"/><path class="cls-4" d="M587.08,996.94c-11.37,4.25-15.56,16.43-11.15,28.9s18.62,17.66,28.94,11.07S620.29,1019.82,616,1008,598.44,992.68,587.08,996.94Z" transform="translate(315.82 298.92)"/><path class="cls-5" d="M1247.45,206.51c49.67,40.22,117.14,31.1,155.6-16.39s32.28-126-16.32-155.61S1266.56-6.38,1231.13,50.9,1197.78,166.28,1247.45,206.51Z" transform="translate(315.82 298.92)"/><path class="cls-5" d="M511.43,398.29c19.69,15.95,46.43,12.33,61.68-6.5s12.79-49.94-6.47-61.68S519,313.9,505,336.61,491.74,382.35,511.43,398.29Z" transform="translate(315.82 298.92)"/><path class="cls-5" d="M599.47,402.59a19.61,19.61,0,0,0,28-3c6.93-8.55,5.82-22.7-2.94-28s-21.65-7.37-28,2.95S590.52,395.34,599.47,402.59Z" transform="translate(315.82 298.92)"/><path class="cls-5" d="M926.31,1260.89c32.54,26.36,91.91-6.61,128.41-42.34s31.37-99.5-13.86-129.45-97.56-26.08-129.5,13.36S893.77,1234.54,926.31,1260.89Z" transform="translate(315.82 298.92)"/><path class="cls-6" d="M347.76,827.26c72,66,174.62,51.48,247.93-25.71S654.3,603.61,569.28,553.7s-178.76-48.13-247.92,25.7S275.74,761.3,347.76,827.26Z" transform="translate(315.82 298.92)"/><path class="cls-6" d="M1420.89,784c27.27,25,66.1,19.49,93.85-9.73s22.19-74.93-10-93.82-67.67-18.22-93.85,9.73S1393.63,759,1420.89,784Z" transform="translate(315.82 298.92)"/><path class="cls-6" d="M575.17,874.06c9,8.2,21.71,6.4,30.82-3.19s7.29-24.61-3.28-30.81-22.22-6-30.82,3.19S566.22,865.86,575.17,874.06Z" transform="translate(315.82 298.92)"/><path class="cls-6" d="M1490.17,843.06c9,8.2,21.71,6.4,30.82-3.19s7.29-24.61-3.28-30.81-22.22-6-30.82,3.19S1481.22,834.86,1490.17,843.06Z" transform="translate(315.82 298.92)"/><path class="cls-6" d="M609.09,819.53c4.47,4.1,10.85,3.2,15.41-1.6s3.64-12.3-1.65-15.4-11.11-3-15.4,1.6S604.61,815.43,609.09,819.53Z" transform="translate(315.82 298.92)"/><path class="cls-7" d="M874.89,561c27.27,25,66.1,19.49,93.85-9.73s22.19-74.93-10-93.82-67.67-18.22-93.85,9.73S847.63,536,874.89,561Z" transform="translate(315.82 298.92)"/><path class="cls-7" d="M127.17,497.06c9,8.2,21.71,6.4,30.82-3.19s7.29-24.61-3.28-30.81-22.22-6-30.82,3.19S118.22,488.86,127.17,497.06Z" transform="translate(315.82 298.92)"/><path class="cls-7" d="M1383.17,1000.06c9,8.2,21.71,6.4,30.82-3.19s7.29-24.61-3.28-30.81-22.22-6-30.82,3.19S1374.22,991.86,1383.17,1000.06Z" transform="translate(315.82 298.92)"/><path class="cls-7" d="M859.44,593c-6.16,10.46-1.75,22.56,9.53,29.48s25.58,2,29.45-9.61,1.23-23-9.53-29.48S865.6,582.56,859.44,593Z" transform="translate(315.82 298.92)"/><path class="cls-8" d="M1541.89,384c27.27,25,66.1,19.49,93.85-9.73s22.19-74.93-10-93.82-67.67-18.22-93.85,9.73S1514.63,359,1541.89,384Z" transform="translate(315.82 298.92)"/><path class="cls-8" d="M-63.13,1354.31c106.66,86.38,276.92,66.4,385.76-40.19s93.73-296.58-40.89-385.68S-8.79,851-104,968.63-169.8,1267.94-63.13,1354.31Z" transform="translate(315.82 298.92)"/><path class="cls-8" d="M1490.94,371.49c86.48,70,86.54,185,29.79,283.4s-153.07,189-220.27,272-191.37,104.31-283.4,29.79-106.35-207.74-29.79-283.4,138.35-189.74,220.27-272S1404.45,301.46,1490.94,371.49Z" transform="translate(315.82 298.92)"/><path class="cls-9" d="M1056.63,349.68c36.82,33.73,89.28,26.32,126.76-13.14s30-101.21-13.5-126.73-91.4-24.61-126.77,13.14S1019.8,316,1056.63,349.68Z" transform="translate(315.82 298.92)"/><path class="cls-9" d="M-220.85,1018.32c100.91,92.42,244.66,72.13,347.38-36S208.65,705,89.53,635s-250.47-67.45-347.39,36S-321.77,925.9-220.85,1018.32Z" transform="translate(315.82 298.92)"/><path class="cls-9" d="M1510.15,1403.32c100.91,92.42,244.66,72.13,347.38-36s82.12-277.35-37-347.28-250.47-67.45-347.39,36S1409.23,1310.9,1510.15,1403.32Z" transform="translate(315.82 298.92)"/><path class="cls-3" d="M1437.56,251.48c15.54,8.51,34.78,9.25,46.19-4.84a32.84,32.84,0,0,0-4.87-46.19c-14.1-11.42-33.72-6-46.19,4.84S1422,243,1437.56,251.48Z" transform="translate(315.82 298.92)"/><path class="cls-3" d="M1164.69,77.16c9.42,5.16,21.08,5.6,28-2.94a19.91,19.91,0,0,0-3-28c-8.55-6.92-20.45-3.62-28,2.93S1155.27,72,1164.69,77.16Z" transform="translate(315.82 298.92)"/><path class="cls-10" d="M1074.93-251.32c86.48,70,99.82,196.92,29.78,283.41s-162.49,180-220.26,272S679,414.36,601.05,333.87s-107.89-187-29.79-283.4l220.26-272C868.26-316.3,988.44-321.35,1074.93-251.32Z" transform="translate(315.82 298.92)"/></g></g></g></g></g></g></g></svg>