<svg width="251" height="115" viewBox="0 0 251 115" fill="none" xmlns="http://www.w3.org/2000/svg">
<path d="M6.384 56.24C5.648 56.24 5.056 56.016 4.608 55.568C4.16 55.12 3.936 54.512 3.936 53.744V24.56C3.936 23.824 4.144 23.248 4.56 22.832C5.008 22.384 5.616 22.16 6.384 22.16H17.952C21.536 22.16 24.32 23.04 26.304 24.8C28.288 26.56 29.28 29.056 29.28 32.288C29.28 35.488 28.288 37.984 26.304 39.776C24.32 41.568 21.536 42.464 17.952 42.464H8.88V53.744C8.88 54.512 8.656 55.12 8.208 55.568C7.792 56.016 7.184 56.24 6.384 56.24ZM17.424 38.48C22.16 38.48 24.528 36.416 24.528 32.288C24.528 28.192 22.16 26.144 17.424 26.144H8.88V38.48H17.424ZM37.1205 56.24C36.4165 56.24 35.8245 56.048 35.3445 55.664C34.8965 55.28 34.6725 54.704 34.6725 53.936V24.272C34.6725 23.504 34.8965 22.928 35.3445 22.544C35.8245 22.128 36.4165 21.92 37.1205 21.92C37.8245 21.92 38.4005 22.128 38.8485 22.544C39.2965 22.928 39.5205 23.504 39.5205 24.272V53.936C39.5205 54.704 39.2965 55.28 38.8485 55.664C38.4005 56.048 37.8245 56.24 37.1205 56.24ZM56.1375 32C59.2415 32 61.5455 32.784 63.0495 34.352C64.5855 35.92 65.3535 38.304 65.3535 41.504V53.936C65.3535 54.672 65.1455 55.248 64.7295 55.664C64.3135 56.048 63.7375 56.24 63.0015 56.24C62.2975 56.24 61.7375 56.032 61.3215 55.616C60.9055 55.2 60.6975 54.64 60.6975 53.936V52.16C60.0895 53.504 59.1775 54.544 57.9615 55.28C56.7775 55.984 55.3855 56.336 53.7855 56.336C52.2495 56.336 50.8415 56.032 49.5615 55.424C48.3135 54.784 47.3215 53.92 46.5855 52.832C45.8495 51.744 45.4815 50.512 45.4815 49.136C45.4495 47.408 45.8815 46.064 46.7775 45.104C47.6735 44.112 49.1295 43.408 51.1455 42.992C53.1615 42.544 55.9615 42.32 59.5455 42.32H60.6495V40.928C60.6495 39.136 60.2815 37.84 59.5455 37.04C58.8095 36.24 57.6255 35.84 55.9935 35.84C54.8735 35.84 53.8175 35.984 52.8255 36.272C51.8335 36.56 50.7455 36.976 49.5615 37.52C48.6975 38 48.0895 38.24 47.7375 38.24C47.2575 38.24 46.8575 38.064 46.5375 37.712C46.2495 37.36 46.1055 36.912 46.1055 36.368C46.1055 35.888 46.2335 35.472 46.4895 35.12C46.7775 34.736 47.2255 34.368 47.8335 34.016C48.9535 33.408 50.2655 32.928 51.7695 32.576C53.2735 32.192 54.7295 32 56.1375 32ZM54.6495 52.736C56.4095 52.736 57.8495 52.144 58.9695 50.96C60.0895 49.744 60.6495 48.192 60.6495 46.304V45.056H59.7855C57.2895 45.056 55.3695 45.168 54.0255 45.392C52.6815 45.616 51.7215 46 51.1455 46.544C50.5695 47.056 50.2815 47.808 50.2815 48.8C50.2815 49.952 50.6975 50.896 51.5295 51.632C52.3615 52.368 53.4015 52.736 54.6495 52.736ZM89.313 52.256C90.017 52.256 90.545 52.432 90.897 52.784C91.281 53.104 91.473 53.552 91.473 54.128C91.473 54.704 91.281 55.168 90.897 55.52C90.545 55.84 90.017 56 89.313 56H72.897C72.193 56 71.633 55.808 71.217 55.424C70.801 55.008 70.593 54.496 70.593 53.888C70.593 53.28 70.833 52.688 71.313 52.112L84.657 36.32H72.609C71.937 36.32 71.409 36.16 71.025 35.84C70.673 35.488 70.497 35.024 70.497 34.448C70.497 33.872 70.673 33.424 71.025 33.104C71.409 32.752 71.937 32.576 72.609 32.576H88.545C89.217 32.576 89.761 32.784 90.177 33.2C90.625 33.616 90.849 34.112 90.849 34.688C90.849 35.296 90.609 35.888 90.129 36.464L76.785 52.256H89.313ZM105.872 32C108.976 32 111.28 32.784 112.784 34.352C114.32 35.92 115.088 38.304 115.088 41.504V53.936C115.088 54.672 114.88 55.248 114.464 55.664C114.048 56.048 113.472 56.24 112.736 56.24C112.032 56.24 111.472 56.032 111.056 55.616C110.64 55.2 110.432 54.64 110.432 53.936V52.16C109.824 53.504 108.912 54.544 107.696 55.28C106.512 55.984 105.12 56.336 103.52 56.336C101.984 56.336 100.576 56.032 99.2959 55.424C98.0479 54.784 97.0559 53.92 96.3199 52.832C95.5839 51.744 95.2159 50.512 95.2159 49.136C95.1839 47.408 95.6159 46.064 96.5119 45.104C97.4079 44.112 98.8639 43.408 100.88 42.992C102.896 42.544 105.696 42.32 109.28 42.32H110.384V40.928C110.384 39.136 110.016 37.84 109.28 37.04C108.544 36.24 107.36 35.84 105.728 35.84C104.608 35.84 103.552 35.984 102.56 36.272C101.568 36.56 100.48 36.976 99.2959 37.52C98.4319 38 97.8239 38.24 97.4719 38.24C96.9919 38.24 96.5919 38.064 96.2719 37.712C95.9839 37.36 95.8399 36.912 95.8399 36.368C95.8399 35.888 95.9679 35.472 96.2239 35.12C96.5119 34.736 96.9599 34.368 97.5679 34.016C98.6879 33.408 99.9999 32.928 101.504 32.576C103.008 32.192 104.464 32 105.872 32ZM104.384 52.736C106.144 52.736 107.584 52.144 108.704 50.96C109.824 49.744 110.384 48.192 110.384 46.304V45.056H109.52C107.024 45.056 105.104 45.168 103.76 45.392C102.416 45.616 101.456 46 100.88 46.544C100.304 47.056 100.016 47.808 100.016 48.8C100.016 49.952 100.432 50.896 101.264 51.632C102.096 52.368 103.136 52.736 104.384 52.736Z" fill="#4338CA"/>
<path d="M4.608 55.568L4.11303 56.063L4.11303 56.063L4.608 55.568ZM4.56 22.832L4.06503 22.337L4.06503 22.337L4.56 22.832ZM26.304 24.8L26.7685 24.2763L26.7685 24.2763L26.304 24.8ZM26.304 39.776L25.8348 39.2565L25.8348 39.2565L26.304 39.776ZM8.88 42.464V41.764H8.18V42.464H8.88ZM8.208 55.568L7.71303 55.073L7.70386 55.0822L7.69504 55.0917L8.208 55.568ZM8.88 26.144V25.444H8.18V26.144H8.88ZM8.88 38.48H8.18V39.18H8.88V38.48ZM6.384 55.54C5.8012 55.54 5.39841 55.3685 5.10297 55.073L4.11303 56.063C4.71359 56.6635 5.4948 56.94 6.384 56.94V55.54ZM5.10297 55.073C4.81325 54.7833 4.636 54.3684 4.636 53.744H3.236C3.236 54.6556 3.50675 55.4567 4.11303 56.063L5.10297 55.073ZM4.636 53.744V24.56H3.236V53.744H4.636ZM4.636 24.56C4.636 23.9604 4.80138 23.5806 5.05498 23.327L4.06503 22.337C3.48662 22.9154 3.236 23.6876 3.236 24.56H4.636ZM5.05498 23.327C5.3447 23.0372 5.75962 22.86 6.384 22.86V21.46C5.47238 21.46 4.6713 21.7307 4.06503 22.337L5.05498 23.327ZM6.384 22.86H17.952V21.46H6.384V22.86ZM17.952 22.86C21.4256 22.86 24.0227 23.712 25.8395 25.3237L26.7685 24.2763C24.6173 22.368 21.6464 21.46 17.952 21.46V22.86ZM25.8395 25.3237C27.6415 26.9222 28.58 29.2087 28.58 32.288H29.98C29.98 28.9033 28.9345 26.1978 26.7685 24.2763L25.8395 25.3237ZM28.58 32.288C28.58 35.3325 27.643 37.6233 25.8348 39.2565L26.7732 40.2955C28.933 38.3447 29.98 35.6435 29.98 32.288H28.58ZM25.8348 39.2565C24.0179 40.8976 21.4226 41.764 17.952 41.764V43.164C21.6494 43.164 24.6221 42.2384 26.7732 40.2955L25.8348 39.2565ZM17.952 41.764H8.88V43.164H17.952V41.764ZM8.18 42.464V53.744H9.58V42.464H8.18ZM8.18 53.744C8.18 54.3684 8.00275 54.7833 7.71303 55.073L8.70297 56.063C9.30925 55.4567 9.58 54.6556 9.58 53.744H8.18ZM7.69504 55.0917C7.44912 55.3565 7.05255 55.54 6.384 55.54V56.94C7.31545 56.94 8.13489 56.6755 8.72096 56.0443L7.69504 55.0917ZM17.424 39.18C19.8781 39.18 21.8494 38.6473 23.2119 37.4597C24.5929 36.256 25.228 34.4868 25.228 32.288H23.828C23.828 34.2172 23.2791 35.544 22.2921 36.4043C21.2866 37.2807 19.7059 37.78 17.424 37.78V39.18ZM25.228 32.288C25.228 30.1035 24.5918 28.3457 23.2099 27.1505C21.8474 25.9722 19.877 25.444 17.424 25.444V26.844C19.707 26.844 21.2886 27.3398 22.2941 28.2095C23.2802 29.0623 23.828 30.3765 23.828 32.288H25.228ZM17.424 25.444H8.88V26.844H17.424V25.444ZM8.18 26.144V38.48H9.58V26.144H8.18ZM8.88 39.18H17.424V37.78H8.88V39.18ZM35.3445 55.664L34.8889 56.1955L34.898 56.2032L34.9072 56.2106L35.3445 55.664ZM35.3445 22.544L35.8001 23.0755L35.803 23.073L35.3445 22.544ZM38.8485 22.544L38.3722 23.057L38.3824 23.0664L38.3929 23.0755L38.8485 22.544ZM38.8485 55.664L39.3041 56.1955L38.8485 55.664ZM37.1205 55.54C36.5512 55.54 36.1199 55.3879 35.7818 55.1174L34.9072 56.2106C35.5291 56.7081 36.2818 56.94 37.1205 56.94V55.54ZM35.8001 55.1325C35.5511 54.9191 35.3725 54.5655 35.3725 53.936H33.9725C33.9725 54.8425 34.2419 55.6409 34.8889 56.1955L35.8001 55.1325ZM35.3725 53.936V24.272H33.9725V53.936H35.3725ZM35.3725 24.272C35.3725 23.6425 35.5511 23.2889 35.8001 23.0755L34.8889 22.0125C34.2419 22.5671 33.9725 23.3655 33.9725 24.272H35.3725ZM35.803 23.073C36.1416 22.7795 36.5653 22.62 37.1205 22.62V21.22C36.2677 21.22 35.5074 21.4765 34.886 22.015L35.803 23.073ZM37.1205 22.62C37.6765 22.62 38.0733 22.7794 38.3722 23.057L39.3248 22.031C38.7277 21.4766 37.9725 21.22 37.1205 21.22V22.62ZM38.3929 23.0755C38.6419 23.2889 38.8205 23.6425 38.8205 24.272H40.2205C40.2205 23.3655 39.9511 22.5671 39.3041 22.0125L38.3929 23.0755ZM38.8205 24.272V53.936H40.2205V24.272H38.8205ZM38.8205 53.936C38.8205 54.5655 38.6419 54.9191 38.3929 55.1325L39.3041 56.1955C39.9511 55.6409 40.2205 54.8425 40.2205 53.936H38.8205ZM38.3929 55.1325C38.0953 55.3876 37.6912 55.54 37.1205 55.54V56.94C37.9578 56.94 38.7057 56.7084 39.3041 56.1955L38.3929 55.1325ZM63.0495 34.352L62.5443 34.8366L62.5495 34.8418L63.0495 34.352ZM64.7295 55.664L65.2043 56.1784L65.2146 56.1689L65.2245 56.159L64.7295 55.664ZM61.3215 55.616L60.8265 56.111L61.3215 55.616ZM60.6975 52.16H61.3975L60.0597 51.8715L60.6975 52.16ZM57.9615 55.28L58.3193 55.8817L58.324 55.8788L57.9615 55.28ZM49.5615 55.424L49.2421 56.0469L49.2515 56.0517L49.2612 56.0563L49.5615 55.424ZM46.5855 52.832L46.0057 53.2242L46.0057 53.2242L46.5855 52.832ZM45.4815 49.136H46.1816L46.1814 49.123L45.4815 49.136ZM46.7775 45.104L47.2893 45.5817L47.297 45.5732L46.7775 45.104ZM51.1455 42.992L51.287 43.6776L51.2974 43.6753L51.1455 42.992ZM60.6495 42.32V43.02H61.3495V42.32H60.6495ZM49.5615 37.52L49.2693 36.8839L49.2449 36.8951L49.2216 36.9081L49.5615 37.52ZM46.5375 37.712L45.9957 38.1553L46.0073 38.1694L46.0195 38.1829L46.5375 37.712ZM46.4895 35.12L45.9294 34.7L45.9234 34.7083L46.4895 35.12ZM47.8335 34.016L47.4995 33.4008L47.4911 33.4054L47.4828 33.4102L47.8335 34.016ZM51.7695 32.576L51.9291 33.2577L51.9427 33.2542L51.7695 32.576ZM58.9695 50.96L59.4781 51.4411L59.4844 51.4342L58.9695 50.96ZM60.6495 45.056H61.3495V44.356H60.6495V45.056ZM51.1455 46.544L51.6106 47.0672L51.6185 47.0602L51.6261 47.0529L51.1455 46.544ZM51.5295 51.632L51.0657 52.1563L51.0657 52.1563L51.5295 51.632ZM56.1375 32.7C59.1337 32.7 61.2204 33.4563 62.5443 34.8366L63.5547 33.8674C61.8706 32.1117 59.3493 31.3 56.1375 31.3V32.7ZM62.5495 34.8418C63.9088 36.2295 64.6535 38.4036 64.6535 41.504H66.0535C66.0535 38.2044 65.2622 35.6105 63.5496 33.8622L62.5495 34.8418ZM64.6535 41.504V53.936H66.0535V41.504H64.6535ZM64.6535 53.936C64.6535 54.5356 64.4881 54.9154 64.2345 55.169L65.2245 56.159C65.8029 55.5806 66.0535 54.8084 66.0535 53.936H64.6535ZM64.2547 55.1496C64.0031 55.3819 63.6159 55.54 63.0015 55.54V56.94C63.8591 56.94 64.6239 56.7141 65.2043 56.1784L64.2547 55.1496ZM63.0015 55.54C62.444 55.54 62.0759 55.3805 61.8165 55.121L60.8265 56.111C61.3991 56.6835 62.151 56.94 63.0015 56.94V55.54ZM61.8165 55.121C61.557 54.8616 61.3975 54.4935 61.3975 53.936H59.9975C59.9975 54.7865 60.254 55.5384 60.8265 56.111L61.8165 55.121ZM61.3975 53.936V52.16H59.9975V53.936H61.3975ZM60.0597 51.8715C59.5077 53.0918 58.6893 54.0213 57.599 54.6811L58.324 55.8788C59.6658 55.0667 60.6713 53.9162 61.3353 52.4485L60.0597 51.8715ZM57.6037 54.6783C56.5444 55.3082 55.2802 55.636 53.7855 55.636V57.036C55.4908 57.036 57.0106 56.6598 58.3193 55.8817L57.6037 54.6783ZM53.7855 55.636C52.3445 55.636 51.0403 55.3515 49.8618 54.7917L49.2612 56.0563C50.6427 56.7125 52.1545 57.036 53.7855 57.036V55.636ZM49.8809 54.8011C48.7304 54.2111 47.8308 53.4236 47.1653 52.4398L46.0057 53.2242C46.8122 54.4164 47.8966 55.3569 49.2421 56.0469L49.8809 54.8011ZM47.1653 52.4398C46.5115 51.4733 46.1815 50.3792 46.1815 49.136H44.7815C44.7815 50.6448 45.1875 52.0147 46.0057 53.2242L47.1653 52.4398ZM46.1814 49.123C46.1516 47.5175 46.5526 46.3709 47.2892 45.5816L46.2658 44.6264C45.2104 45.7571 44.7474 47.2985 44.7816 49.149L46.1814 49.123ZM47.297 45.5732C48.0523 44.7369 49.3429 44.0787 51.287 43.6776L51.004 42.3064C48.9161 42.7373 47.2947 43.4871 46.258 44.6348L47.297 45.5732ZM51.2974 43.6753C53.2401 43.2436 55.9812 43.02 59.5455 43.02V41.62C55.9418 41.62 53.0829 41.8444 50.9936 42.3087L51.2974 43.6753ZM59.5455 43.02H60.6495V41.62H59.5455V43.02ZM61.3495 42.32V40.928H59.9495V42.32H61.3495ZM61.3495 40.928C61.3495 39.0673 60.9721 37.5568 60.0607 36.5661L59.0303 37.5139C59.5909 38.1232 59.9495 39.2047 59.9495 40.928H61.3495ZM60.0607 36.5661C59.1377 35.5628 57.723 35.14 55.9935 35.14V36.54C57.528 36.54 58.4813 36.9172 59.0303 37.5139L60.0607 36.5661ZM55.9935 35.14C54.813 35.14 53.6909 35.2919 52.6303 35.5998L53.0207 36.9442C53.9441 36.6761 54.934 36.54 55.9935 36.54V35.14ZM52.6303 35.5998C51.5979 35.8995 50.477 36.329 49.2693 36.8839L49.8538 38.1561C51.014 37.623 52.0691 37.2205 53.0207 36.9442L52.6303 35.5998ZM49.2216 36.9081C48.8042 37.1399 48.4656 37.3043 48.2005 37.4089C47.9204 37.5194 47.7795 37.54 47.7375 37.54V38.94C48.0475 38.94 48.3866 38.8406 48.7145 38.7111C49.0574 38.5757 49.4548 38.3801 49.9015 38.1319L49.2216 36.9081ZM47.7375 37.54C47.4527 37.54 47.2414 37.4457 47.0555 37.2411L46.0195 38.1829C46.4736 38.6823 47.0623 38.94 47.7375 38.94V37.54ZM47.0793 37.2687C46.9127 37.0651 46.8055 36.7834 46.8055 36.368H45.4055C45.4055 37.0406 45.5863 37.6549 45.9957 38.1553L47.0793 37.2687ZM46.8055 36.368C46.8055 36.02 46.8956 35.7518 47.0556 35.5317L45.9234 34.7083C45.5714 35.1922 45.4055 35.756 45.4055 36.368H46.8055ZM47.0495 35.54C47.2611 35.2579 47.6232 34.9466 48.1842 34.6218L47.4828 33.4102C46.8278 33.7894 46.2939 34.2141 45.9295 34.7L47.0495 35.54ZM48.1675 34.6312C49.2224 34.0585 50.4735 33.5982 51.929 33.2576L51.61 31.8944C50.0575 32.2578 48.6846 32.7575 47.4995 33.4008L48.1675 34.6312ZM51.9427 33.2542C53.3958 32.8832 54.7935 32.7 56.1375 32.7V31.3C54.6655 31.3 53.1512 31.5008 51.5963 31.8978L51.9427 33.2542ZM54.6495 53.436C56.5848 53.436 58.2145 52.7768 59.478 51.441L58.461 50.479C57.4845 51.5112 56.2342 52.036 54.6495 52.036V53.436ZM59.4844 51.4342C60.7404 50.0706 61.3495 48.3409 61.3495 46.304H59.9495C59.9495 48.0431 59.4386 49.4174 58.4546 50.4858L59.4844 51.4342ZM61.3495 46.304V45.056H59.9495V46.304H61.3495ZM60.6495 44.356H59.7855V45.756H60.6495V44.356ZM59.7855 44.356C57.277 44.356 55.3116 44.468 53.9104 44.7015L54.1406 46.0825C55.4274 45.868 57.302 45.756 59.7855 45.756V44.356ZM53.9104 44.7015C52.5168 44.9338 51.3915 45.3488 50.6649 46.0351L51.6261 47.0529C52.0515 46.6511 52.8462 46.2982 54.1406 46.0825L53.9104 44.7015ZM50.6804 46.0208C49.9147 46.7015 49.5815 47.6693 49.5815 48.8H50.9815C50.9815 47.9467 51.2243 47.4105 51.6106 47.0672L50.6804 46.0208ZM49.5815 48.8C49.5815 50.1441 50.0773 51.2819 51.0657 52.1563L51.9933 51.1077C51.3177 50.5101 50.9815 49.7599 50.9815 48.8H49.5815ZM51.0657 52.1563C52.0417 53.0196 53.2533 53.436 54.6495 53.436V52.036C53.5497 52.036 52.6813 51.7164 51.9933 51.1077L51.0657 52.1563ZM90.897 52.784L90.402 53.279L90.4245 53.3014L90.4489 53.3218L90.897 52.784ZM90.897 55.52L91.3679 56.038L91.37 56.036L90.897 55.52ZM71.217 55.424L70.722 55.919L70.7319 55.9289L70.7422 55.9384L71.217 55.424ZM71.313 52.112L70.7783 51.6602L70.7752 51.6639L71.313 52.112ZM84.657 36.32L85.1917 36.7718L86.1649 35.62H84.657V36.32ZM71.025 35.84L70.53 36.335L70.5525 36.3574L70.5769 36.3778L71.025 35.84ZM71.025 33.104L71.4959 33.622L71.498 33.62L71.025 33.104ZM90.177 33.2L89.682 33.695L89.6912 33.7041L89.7007 33.713L90.177 33.2ZM90.129 36.464L90.6637 36.9158L90.6668 36.9121L90.129 36.464ZM76.785 52.256L76.2503 51.8042L75.2771 52.956H76.785V52.256ZM89.313 52.956C89.9091 52.956 90.2276 53.1046 90.402 53.279L91.392 52.289C90.8624 51.7594 90.1249 51.556 89.313 51.556V52.956ZM90.4489 53.3218C90.648 53.4877 90.773 53.7244 90.773 54.128H92.173C92.173 53.3796 91.914 52.7203 91.3451 52.2462L90.4489 53.3218ZM90.773 54.128C90.773 54.5309 90.6472 54.7994 90.424 55.004L91.37 56.036C91.9148 55.5366 92.173 54.8771 92.173 54.128H90.773ZM90.4261 55.002C90.2529 55.1595 89.9247 55.3 89.313 55.3V56.7C90.1093 56.7 90.8371 56.5205 91.3679 56.038L90.4261 55.002ZM89.313 55.3H72.897V56.7H89.313V55.3ZM72.897 55.3C72.3242 55.3 71.949 55.147 71.6918 54.9096L70.7422 55.9384C71.317 56.469 72.0618 56.7 72.897 56.7V55.3ZM71.712 54.929C71.4321 54.6491 71.293 54.3173 71.293 53.888H69.893C69.893 54.6747 70.1699 55.3669 70.722 55.919L71.712 54.929ZM71.293 53.888C71.293 53.4793 71.4503 53.0406 71.8508 52.5601L70.7752 51.6639C70.2157 52.3354 69.893 53.0807 69.893 53.888H71.293ZM71.8477 52.5638L85.1917 36.7718L84.1223 35.8682L70.7783 51.6602L71.8477 52.5638ZM84.657 35.62H72.609V37.02H84.657V35.62ZM72.609 35.62C72.0442 35.62 71.6938 35.4861 71.4731 35.3022L70.5769 36.3778C71.1242 36.8339 71.8298 37.02 72.609 37.02V35.62ZM71.52 35.345C71.32 35.1451 71.197 34.8699 71.197 34.448H69.797C69.797 35.1781 70.026 35.8309 70.53 36.335L71.52 35.345ZM71.197 34.448C71.197 34.0242 71.3201 33.7817 71.4959 33.622L70.5541 32.586C70.0259 33.0663 69.797 33.7198 69.797 34.448H71.197ZM71.498 33.62C71.7189 33.4175 72.0597 33.276 72.609 33.276V31.876C71.8143 31.876 71.0991 32.0865 70.552 32.588L71.498 33.62ZM72.609 33.276H88.545V31.876H72.609V33.276ZM88.545 33.276C89.06 33.276 89.4163 33.4292 89.682 33.695L90.672 32.705C90.1057 32.1388 89.374 31.876 88.545 31.876V33.276ZM89.7007 33.713C90.0159 34.0056 90.149 34.3197 90.149 34.688H91.549C91.549 33.9043 91.2341 33.2264 90.6533 32.687L89.7007 33.713ZM90.149 34.688C90.149 35.0967 89.9917 35.5354 89.5912 36.0159L90.6668 36.9121C91.2263 36.2406 91.549 35.4953 91.549 34.688H90.149ZM89.5943 36.0122L76.2503 51.8042L77.3197 52.7078L90.6637 36.9158L89.5943 36.0122ZM76.785 52.956H89.313V51.556H76.785V52.956ZM112.784 34.352L112.279 34.8366L112.284 34.8418L112.784 34.352ZM114.464 55.664L114.939 56.1784L114.949 56.1689L114.959 56.159L114.464 55.664ZM111.056 55.616L110.561 56.111L111.056 55.616ZM110.432 52.16H111.132L109.794 51.8715L110.432 52.16ZM107.696 55.28L108.054 55.8817L108.058 55.8788L107.696 55.28ZM99.2959 55.424L98.9765 56.0469L98.9859 56.0517L98.9955 56.0563L99.2959 55.424ZM96.3199 52.832L95.7401 53.2242L95.7401 53.2242L96.3199 52.832ZM95.2159 49.136H95.916L95.9158 49.123L95.2159 49.136ZM96.5119 45.104L97.0237 45.5817L97.0313 45.5732L96.5119 45.104ZM100.88 42.992L101.021 43.6776L101.032 43.6753L100.88 42.992ZM110.384 42.32V43.02H111.084V42.32H110.384ZM99.2959 37.52L99.0036 36.8839L98.9793 36.8951L98.9559 36.9081L99.2959 37.52ZM96.2719 37.712L95.7301 38.1553L95.7417 38.1694L95.7539 38.1829L96.2719 37.712ZM96.2239 35.12L95.6638 34.7L95.6578 34.7083L96.2239 35.12ZM97.5679 34.016L97.2339 33.4008L97.2255 33.4054L97.2171 33.4102L97.5679 34.016ZM101.504 32.576L101.663 33.2577L101.677 33.2542L101.504 32.576ZM108.704 50.96L109.212 51.4411L109.219 51.4342L108.704 50.96ZM110.384 45.056H111.084V44.356H110.384V45.056ZM100.88 46.544L101.345 47.0672L101.353 47.0602L101.361 47.0529L100.88 46.544ZM101.264 51.632L100.8 52.1563L100.8 52.1563L101.264 51.632ZM105.872 32.7C108.868 32.7 110.955 33.4563 112.279 34.8366L113.289 33.8674C111.605 32.1117 109.084 31.3 105.872 31.3V32.7ZM112.284 34.8418C113.643 36.2295 114.388 38.4036 114.388 41.504H115.788C115.788 38.2044 114.997 35.6105 113.284 33.8622L112.284 34.8418ZM114.388 41.504V53.936H115.788V41.504H114.388ZM114.388 53.936C114.388 54.5356 114.222 54.9154 113.969 55.169L114.959 56.159C115.537 55.5806 115.788 54.8084 115.788 53.936H114.388ZM113.989 55.1496C113.737 55.3819 113.35 55.54 112.736 55.54V56.94C113.593 56.94 114.358 56.7141 114.939 56.1784L113.989 55.1496ZM112.736 55.54C112.178 55.54 111.81 55.3805 111.551 55.121L110.561 56.111C111.133 56.6835 111.885 56.94 112.736 56.94V55.54ZM111.551 55.121C111.291 54.8616 111.132 54.4935 111.132 53.936H109.732C109.732 54.7865 109.988 55.5384 110.561 56.111L111.551 55.121ZM111.132 53.936V52.16H109.732V53.936H111.132ZM109.794 51.8715C109.242 53.0918 108.424 54.0213 107.333 54.6811L108.058 55.8788C109.4 55.0667 110.406 53.9162 111.07 52.4485L109.794 51.8715ZM107.338 54.6783C106.279 55.3082 105.015 55.636 103.52 55.636V57.036C105.225 57.036 106.745 56.6598 108.054 55.8817L107.338 54.6783ZM103.52 55.636C102.079 55.636 100.775 55.3515 99.5962 54.7917L98.9955 56.0563C100.377 56.7125 101.889 57.036 103.52 57.036V55.636ZM99.6153 54.8011C98.4648 54.2111 97.5652 53.4236 96.8997 52.4398L95.7401 53.2242C96.5465 54.4164 97.631 55.3569 98.9765 56.0469L99.6153 54.8011ZM96.8997 52.4398C96.2459 51.4733 95.9159 50.3792 95.9159 49.136H94.5159C94.5159 50.6448 94.9219 52.0147 95.7401 53.2242L96.8997 52.4398ZM95.9158 49.123C95.886 47.5175 96.287 46.3709 97.0236 45.5816L96.0001 44.6264C94.9448 45.7571 94.4817 47.2985 94.516 49.149L95.9158 49.123ZM97.0313 45.5732C97.7867 44.7369 99.0773 44.0787 101.021 43.6776L100.738 42.3064C98.6505 42.7373 97.029 43.4871 95.9924 44.6348L97.0313 45.5732ZM101.032 43.6753C102.974 43.2436 105.716 43.02 109.28 43.02V41.62C105.676 41.62 102.817 41.8444 100.728 42.3087L101.032 43.6753ZM109.28 43.02H110.384V41.62H109.28V43.02ZM111.084 42.32V40.928H109.684V42.32H111.084ZM111.084 40.928C111.084 39.0673 110.707 37.5568 109.795 36.5661L108.765 37.5139C109.325 38.1232 109.684 39.2047 109.684 40.928H111.084ZM109.795 36.5661C108.872 35.5628 107.457 35.14 105.728 35.14V36.54C107.262 36.54 108.216 36.9172 108.765 37.5139L109.795 36.5661ZM105.728 35.14C104.547 35.14 103.425 35.2919 102.365 35.5998L102.755 36.9442C103.679 36.6761 104.668 36.54 105.728 36.54V35.14ZM102.365 35.5998C101.332 35.8995 100.211 36.329 99.0036 36.8839L99.5881 38.1561C100.748 37.623 101.804 37.2205 102.755 36.9442L102.365 35.5998ZM98.9559 36.9081C98.5386 37.1399 98.1999 37.3043 97.9349 37.4089C97.6548 37.5194 97.5139 37.54 97.4719 37.54V38.94C97.7819 38.94 98.1209 38.8406 98.4489 38.7111C98.7918 38.5757 99.1891 38.3801 99.6358 38.1319L98.9559 36.9081ZM97.4719 37.54C97.1871 37.54 96.9758 37.4457 96.7898 37.2411L95.7539 38.1829C96.2079 38.6823 96.7967 38.94 97.4719 38.94V37.54ZM96.8136 37.2687C96.6471 37.0651 96.5399 36.7834 96.5399 36.368H95.1399C95.1399 37.0406 95.3207 37.6549 95.7301 38.1553L96.8136 37.2687ZM96.5399 36.368C96.5399 36.02 96.63 35.7518 96.79 35.5317L95.6578 34.7083C95.3058 35.1922 95.1399 35.756 95.1399 36.368H96.5399ZM96.7839 35.54C96.9955 35.2579 97.3576 34.9466 97.9186 34.6218L97.2171 33.4102C96.5622 33.7894 96.0283 34.2141 95.6639 34.7L96.7839 35.54ZM97.9018 34.6312C98.9568 34.0585 100.208 33.5982 101.663 33.2576L101.344 31.8944C99.7919 32.2578 98.419 32.7575 97.2339 33.4008L97.9018 34.6312ZM101.677 33.2542C103.13 32.8832 104.528 32.7 105.872 32.7V31.3C104.4 31.3 102.886 31.5008 101.331 31.8978L101.677 33.2542ZM104.384 53.436C106.319 53.436 107.949 52.7768 109.212 51.441L108.195 50.479C107.219 51.5112 105.969 52.036 104.384 52.036V53.436ZM109.219 51.4342C110.475 50.0706 111.084 48.3409 111.084 46.304H109.684C109.684 48.0431 109.173 49.4174 108.189 50.4858L109.219 51.4342ZM111.084 46.304V45.056H109.684V46.304H111.084ZM110.384 44.356H109.52V45.756H110.384V44.356ZM109.52 44.356C107.011 44.356 105.046 44.468 103.645 44.7015L103.875 46.0825C105.162 45.868 107.036 45.756 109.52 45.756V44.356ZM103.645 44.7015C102.251 44.9338 101.126 45.3488 100.399 46.0351L101.361 47.0529C101.786 46.6511 102.581 46.2982 103.875 46.0825L103.645 44.7015ZM100.415 46.0208C99.649 46.7015 99.3159 47.6693 99.3159 48.8H100.716C100.716 47.9467 100.959 47.4105 101.345 47.0672L100.415 46.0208ZM99.3159 48.8C99.3159 50.1441 99.8116 51.2819 100.8 52.1563L101.728 51.1077C101.052 50.5101 100.716 49.7599 100.716 48.8H99.3159ZM100.8 52.1563C101.776 53.0196 102.988 53.436 104.384 53.436V52.036C103.284 52.036 102.416 51.7164 101.728 51.1077L100.8 52.1563Z" fill="#DCE546"/>
<path d="M37.384 98.24C36.648 98.24 36.056 98.016 35.608 97.568C35.16 97.088 34.936 96.48 34.936 95.744V66.56C34.936 65.824 35.144 65.248 35.56 64.832C36.008 64.384 36.616 64.16 37.384 64.16H54.568C56.104 64.16 56.872 64.832 56.872 66.176C56.872 67.52 56.104 68.192 54.568 68.192H39.832V78.8H53.608C55.144 78.8 55.912 79.472 55.912 80.816C55.912 82.16 55.144 82.832 53.608 82.832H39.832V95.744C39.832 96.512 39.608 97.12 39.16 97.568C38.744 98.016 38.152 98.24 37.384 98.24ZM73.0855 74.096C74.6215 74 75.3895 74.656 75.3895 76.064C75.3895 76.768 75.2135 77.296 74.8615 77.648C74.5095 78 73.9015 78.208 73.0375 78.272L71.5975 78.416C69.5815 78.608 68.0775 79.312 67.0855 80.528C66.1255 81.744 65.6455 83.216 65.6455 84.944V95.936C65.6455 96.704 65.4215 97.28 64.9735 97.664C64.5255 98.048 63.9495 98.24 63.2455 98.24C62.5415 98.24 61.9495 98.048 61.4695 97.664C61.0215 97.28 60.7975 96.704 60.7975 95.936V76.4C60.7975 75.664 61.0215 75.104 61.4695 74.72C61.9495 74.304 62.5415 74.096 63.2455 74.096C63.8855 74.096 64.4135 74.304 64.8295 74.72C65.2775 75.104 65.5015 75.648 65.5015 76.352V78.656C66.1415 77.248 67.0695 76.176 68.2855 75.44C69.5015 74.704 70.8775 74.272 72.4135 74.144L73.0855 74.096ZM88.0829 98.336C85.7789 98.336 83.7469 97.84 81.9869 96.848C80.2589 95.856 78.9149 94.448 77.9549 92.624C77.0269 90.768 76.5629 88.624 76.5629 86.192C76.5629 83.728 77.0269 81.584 77.9549 79.76C78.9149 77.904 80.2589 76.48 81.9869 75.488C83.7469 74.496 85.7789 74 88.0829 74C90.3869 74 92.4029 74.496 94.1309 75.488C95.8909 76.48 97.2349 77.904 98.1629 79.76C99.1229 81.584 99.6029 83.728 99.6029 86.192C99.6029 88.624 99.1229 90.768 98.1629 92.624C97.2349 94.448 95.8909 95.856 94.1309 96.848C92.4029 97.84 90.3869 98.336 88.0829 98.336ZM88.0829 94.496C90.2269 94.496 91.8589 93.792 92.9789 92.384C94.1309 90.976 94.7069 88.912 94.7069 86.192C94.7069 83.504 94.1309 81.456 92.9789 80.048C91.8269 78.608 90.1949 77.888 88.0829 77.888C85.9709 77.888 84.3389 78.608 83.1869 80.048C82.0349 81.456 81.4589 83.504 81.4589 86.192C81.4589 88.912 82.0189 90.976 83.1389 92.384C84.2909 93.792 85.9389 94.496 88.0829 94.496ZM117.625 74C123.225 74 126.025 77.152 126.025 83.456V95.936C126.025 96.672 125.801 97.248 125.353 97.664C124.937 98.048 124.345 98.24 123.577 98.24C122.841 98.24 122.249 98.032 121.801 97.616C121.385 97.2 121.177 96.64 121.177 95.936V83.696C121.177 81.712 120.777 80.256 119.977 79.328C119.209 78.4 117.993 77.936 116.329 77.936C114.377 77.936 112.809 78.544 111.625 79.76C110.441 80.976 109.849 82.608 109.849 84.656V95.936C109.849 96.64 109.625 97.2 109.177 97.616C108.761 98.032 108.185 98.24 107.449 98.24C106.713 98.24 106.121 98.032 105.673 97.616C105.225 97.2 105.001 96.64 105.001 95.936V76.4C105.001 75.728 105.225 75.184 105.673 74.768C106.153 74.32 106.745 74.096 107.449 74.096C108.153 74.096 108.713 74.304 109.129 74.72C109.545 75.136 109.753 75.68 109.753 76.352V78.32C110.521 76.912 111.593 75.84 112.969 75.104C114.345 74.368 115.897 74 117.625 74ZM144.129 94.544C144.833 94.608 145.329 94.8 145.617 95.12C145.937 95.408 146.097 95.824 146.097 96.368C146.097 97.008 145.841 97.504 145.329 97.856C144.849 98.176 144.129 98.304 143.169 98.24L141.873 98.144C139.281 97.952 137.345 97.168 136.065 95.792C134.785 94.384 134.145 92.32 134.145 89.6V78.32H131.265C129.857 78.32 129.153 77.696 129.153 76.448C129.153 75.872 129.329 75.424 129.681 75.104C130.065 74.752 130.593 74.576 131.265 74.576H134.145V69.632C134.145 68.896 134.353 68.32 134.769 67.904C135.217 67.488 135.809 67.28 136.545 67.28C137.281 67.28 137.873 67.488 138.321 67.904C138.769 68.32 138.993 68.896 138.993 69.632V74.576H143.745C144.417 74.576 144.929 74.752 145.281 75.104C145.665 75.424 145.857 75.872 145.857 76.448C145.857 77.056 145.665 77.52 145.281 77.84C144.929 78.16 144.417 78.32 143.745 78.32H138.993V89.936C138.993 91.44 139.297 92.544 139.905 93.248C140.545 93.952 141.505 94.352 142.785 94.448L144.129 94.544ZM173.181 98C172.413 98 171.805 97.792 171.357 97.376C170.941 96.928 170.733 96.336 170.733 95.6V66.56C170.733 65.824 170.941 65.248 171.357 64.832C171.805 64.384 172.413 64.16 173.181 64.16H190.845C191.581 64.16 192.141 64.336 192.525 64.688C192.941 65.04 193.149 65.536 193.149 66.176C193.149 66.816 192.941 67.312 192.525 67.664C192.141 67.984 191.581 68.144 190.845 68.144H175.581V78.8H189.885C190.621 78.8 191.181 78.976 191.565 79.328C191.981 79.68 192.189 80.176 192.189 80.816C192.189 81.456 191.981 81.952 191.565 82.304C191.181 82.656 190.621 82.832 189.885 82.832H175.581V94.016H190.845C192.381 94.016 193.149 94.672 193.149 95.984C193.149 96.624 192.941 97.12 192.525 97.472C192.141 97.824 191.581 98 190.845 98H173.181ZM210.859 74C216.459 74 219.259 77.152 219.259 83.456V95.936C219.259 96.672 219.035 97.248 218.587 97.664C218.171 98.048 217.579 98.24 216.811 98.24C216.075 98.24 215.483 98.032 215.035 97.616C214.619 97.2 214.411 96.64 214.411 95.936V83.696C214.411 81.712 214.011 80.256 213.211 79.328C212.443 78.4 211.227 77.936 209.563 77.936C207.611 77.936 206.043 78.544 204.859 79.76C203.675 80.976 203.083 82.608 203.083 84.656V95.936C203.083 96.64 202.859 97.2 202.411 97.616C201.995 98.032 201.419 98.24 200.683 98.24C199.947 98.24 199.355 98.032 198.907 97.616C198.459 97.2 198.235 96.64 198.235 95.936V76.4C198.235 75.728 198.459 75.184 198.907 74.768C199.387 74.32 199.979 74.096 200.683 74.096C201.387 74.096 201.947 74.304 202.363 74.72C202.779 75.136 202.987 75.68 202.987 76.352V78.32C203.755 76.912 204.827 75.84 206.203 75.104C207.579 74.368 209.131 74 210.859 74ZM245.043 63.92C245.779 63.92 246.371 64.128 246.819 64.544C247.267 64.96 247.491 65.52 247.491 66.224V95.888C247.491 96.624 247.267 97.2 246.819 97.616C246.403 98.032 245.827 98.24 245.091 98.24C244.355 98.24 243.763 98.032 243.315 97.616C242.899 97.2 242.691 96.624 242.691 95.888V93.968C241.987 95.376 240.963 96.464 239.619 97.232C238.275 97.968 236.723 98.336 234.963 98.336C232.947 98.336 231.139 97.824 229.539 96.8C227.971 95.776 226.739 94.336 225.843 92.48C224.979 90.624 224.547 88.496 224.547 86.096C224.547 83.664 224.979 81.536 225.843 79.712C226.739 77.888 227.971 76.48 229.539 75.488C231.107 74.496 232.915 74 234.963 74C236.723 74 238.259 74.384 239.571 75.152C240.915 75.888 241.939 76.944 242.643 78.32V66.128C242.643 65.456 242.851 64.928 243.267 64.544C243.715 64.128 244.307 63.92 245.043 63.92ZM236.115 94.496C238.195 94.496 239.811 93.776 240.963 92.336C242.115 90.896 242.691 88.848 242.691 86.192C242.691 83.536 242.115 81.488 240.963 80.048C239.843 78.608 238.227 77.888 236.115 77.888C234.003 77.888 232.355 78.608 231.171 80.048C230.019 81.456 229.443 83.472 229.443 86.096C229.443 88.72 230.035 90.784 231.219 92.288C232.403 93.76 234.035 94.496 236.115 94.496Z" fill="#4338CA"/>
<path d="M151.403 87.152C150.667 87.152 150.107 86.992 149.723 86.672C149.339 86.32 149.147 85.84 149.147 85.232C149.147 84.624 149.339 84.144 149.723 83.792C150.107 83.44 150.667 83.264 151.403 83.264H161.627C162.363 83.264 162.923 83.44 163.307 83.792C163.691 84.144 163.883 84.624 163.883 85.232C163.883 85.84 163.691 86.32 163.307 86.672C162.923 86.992 162.363 87.152 161.627 87.152H151.403Z" fill="#DCE546"/>
<path d="M35.608 97.568L35.0963 98.0456L35.1045 98.0544L35.113 98.063L35.608 97.568ZM35.56 64.832L35.065 64.337L35.065 64.337L35.56 64.832ZM39.832 68.192V67.492H39.132V68.192H39.832ZM39.832 78.8H39.132V79.5H39.832V78.8ZM39.832 82.832V82.132H39.132V82.832H39.832ZM39.16 97.568L38.665 97.073L38.6559 97.0822L38.647 97.0917L39.16 97.568ZM37.384 97.54C36.8012 97.54 36.3984 97.3685 36.103 97.073L35.113 98.063C35.7136 98.6635 36.4948 98.94 37.384 98.94V97.54ZM36.1197 97.0904C35.8077 96.756 35.636 96.3259 35.636 95.744H34.236C34.236 96.6341 34.5123 97.42 35.0963 98.0456L36.1197 97.0904ZM35.636 95.744V66.56H34.236V95.744H35.636ZM35.636 66.56C35.636 65.9604 35.8014 65.5806 36.055 65.327L35.065 64.337C34.4866 64.9154 34.236 65.6876 34.236 66.56H35.636ZM36.055 65.327C36.3447 65.0372 36.7596 64.86 37.384 64.86V63.46C36.4724 63.46 35.6713 63.7307 35.065 64.337L36.055 65.327ZM37.384 64.86H54.568V63.46H37.384V64.86ZM54.568 64.86C55.2494 64.86 55.6296 65.0111 55.835 65.1908C56.0226 65.3549 56.172 65.638 56.172 66.176H57.572C57.572 65.37 57.3374 64.6451 56.757 64.1372C56.1944 63.6449 55.4226 63.46 54.568 63.46V64.86ZM56.172 66.176C56.172 66.714 56.0226 66.9971 55.835 67.1612C55.6296 67.3409 55.2494 67.492 54.568 67.492V68.892C55.4226 68.892 56.1944 68.7071 56.757 68.2148C57.3374 67.7069 57.572 66.982 57.572 66.176H56.172ZM54.568 67.492H39.832V68.892H54.568V67.492ZM39.132 68.192V78.8H40.532V68.192H39.132ZM39.832 79.5H53.608V78.1H39.832V79.5ZM53.608 79.5C54.2894 79.5 54.6696 79.6511 54.875 79.8308C55.0626 79.9949 55.212 80.278 55.212 80.816H56.612C56.612 80.01 56.3774 79.2851 55.797 78.7772C55.2344 78.2849 54.4626 78.1 53.608 78.1V79.5ZM55.212 80.816C55.212 81.354 55.0626 81.6371 54.875 81.8012C54.6696 81.9809 54.2894 82.132 53.608 82.132V83.532C54.4626 83.532 55.2344 83.3471 55.797 82.8548C56.3774 82.3469 56.612 81.622 56.612 80.816H55.212ZM53.608 82.132H39.832V83.532H53.608V82.132ZM39.132 82.832V95.744H40.532V82.832H39.132ZM39.132 95.744C39.132 96.3684 38.9548 96.7833 38.665 97.073L39.655 98.063C40.2612 97.4567 40.532 96.6556 40.532 95.744H39.132ZM38.647 97.0917C38.3958 97.3622 38.0106 97.54 37.384 97.54V98.94C38.2934 98.94 39.0922 98.6698 39.673 98.0443L38.647 97.0917ZM73.0855 74.096L73.0418 73.3973L73.0356 73.3978L73.0855 74.096ZM74.8615 77.648L74.3665 77.153L74.3665 77.153L74.8615 77.648ZM73.0375 78.272L72.9858 77.5739L72.9768 77.5746L72.9678 77.5755L73.0375 78.272ZM71.5975 78.416L71.6639 79.1129L71.6672 79.1125L71.5975 78.416ZM67.0855 80.528L66.543 80.0855L66.5361 80.0942L67.0855 80.528ZM64.9735 97.664L65.4291 98.1955L64.9735 97.664ZM61.4695 97.664L61.0139 98.1955L61.023 98.2032L61.0322 98.2106L61.4695 97.664ZM61.4695 74.72L61.9251 75.2515L61.928 75.249L61.4695 74.72ZM64.8295 74.72L64.3345 75.215L64.3535 75.234L64.3739 75.2515L64.8295 74.72ZM65.5015 78.656H64.8015L66.1388 78.9457L65.5015 78.656ZM68.2855 75.44L68.648 76.0388L68.648 76.0388L68.2855 75.44ZM72.4135 74.144L72.3636 73.4457L72.3554 73.4464L72.4135 74.144ZM73.1292 74.7946C73.8086 74.7522 74.1705 74.8874 74.3589 75.0483C74.5329 75.1969 74.6895 75.4806 74.6895 76.064H76.0895C76.0895 75.2394 75.8621 74.4911 75.2681 73.9837C74.6885 73.4886 73.8984 73.3438 73.0418 73.3974L73.1292 74.7946ZM74.6895 76.064C74.6895 76.6601 74.541 76.9786 74.3665 77.153L75.3565 78.143C75.8861 77.6134 76.0895 76.8759 76.0895 76.064H74.6895ZM74.3665 77.153C74.194 77.3255 73.795 77.514 72.9858 77.5739L73.0892 78.9701C74.008 78.902 74.825 78.6745 75.3565 78.143L74.3665 77.153ZM72.9678 77.5755L71.5278 77.7195L71.6672 79.1125L73.1072 78.9685L72.9678 77.5755ZM71.5311 77.7192C69.3855 77.9235 67.6851 78.6857 66.5431 80.0855L67.6279 80.9705C68.4699 79.9383 69.7775 79.2925 71.6639 79.1128L71.5311 77.7192ZM66.5361 80.0942C65.4673 81.4481 64.9455 83.0778 64.9455 84.944H66.3455C66.3455 83.3542 66.7837 82.0399 67.6349 80.9617L66.5361 80.0942ZM64.9455 84.944V95.936H66.3455V84.944H64.9455ZM64.9455 95.936C64.9455 96.5655 64.7669 96.9191 64.5179 97.1325L65.4291 98.1955C66.0761 97.6409 66.3455 96.8425 66.3455 95.936H64.9455ZM64.5179 97.1325C64.2203 97.3876 63.8162 97.54 63.2455 97.54V98.94C64.0828 98.94 64.8307 98.7084 65.4291 98.1955L64.5179 97.1325ZM63.2455 97.54C62.6762 97.54 62.2449 97.3879 61.9068 97.1174L61.0322 98.2106C61.6541 98.7081 62.4068 98.94 63.2455 98.94V97.54ZM61.9251 97.1325C61.6761 96.9191 61.4975 96.5655 61.4975 95.936H60.0975C60.0975 96.8425 60.3669 97.6409 61.0139 98.1955L61.9251 97.1325ZM61.4975 95.936V76.4H60.0975V95.936H61.4975ZM61.4975 76.4C61.4975 75.8136 61.6695 75.4705 61.9251 75.2515L61.0139 74.1885C60.3735 74.7374 60.0975 75.5144 60.0975 76.4H61.4975ZM61.928 75.249C62.2666 74.9555 62.6903 74.796 63.2455 74.796V73.396C62.3927 73.396 61.6324 73.6525 61.011 74.191L61.928 75.249ZM63.2455 74.796C63.7178 74.796 64.062 74.9424 64.3345 75.215L65.3245 74.225C64.765 73.6656 64.0532 73.396 63.2455 73.396V74.796ZM64.3739 75.2515C64.6366 75.4766 64.8015 75.8089 64.8015 76.352H66.2015C66.2015 75.4871 65.9184 74.7314 65.2851 74.1885L64.3739 75.2515ZM64.8015 76.352V78.656H66.2015V76.352H64.8015ZM66.1388 78.9457C66.7258 77.6542 67.5633 76.6954 68.648 76.0388L67.923 74.8411C66.5757 75.6566 65.5572 76.8418 64.8642 78.3663L66.1388 78.9457ZM68.648 76.0388C69.7639 75.3634 71.0341 74.9614 72.4716 74.8416L72.3554 73.4464C70.7209 73.5826 69.2391 74.0446 67.923 74.8411L68.648 76.0388ZM72.4634 74.8422L73.1354 74.7942L73.0356 73.3978L72.3636 73.4458L72.4634 74.8422ZM81.9869 96.848L81.6384 97.4551L81.6432 97.4578L81.9869 96.848ZM77.9549 92.624L77.3288 92.937L77.332 92.9436L77.3354 92.95L77.9549 92.624ZM77.9549 79.76L77.3331 79.4384L77.331 79.4426L77.9549 79.76ZM81.9869 75.488L81.6432 74.8782L81.6384 74.8809L81.9869 75.488ZM94.1309 75.488L93.7824 76.0951L93.7872 76.0978L94.1309 75.488ZM98.1629 79.76L97.5368 80.073L97.54 80.0796L97.5434 80.086L98.1629 79.76ZM98.1629 92.624L97.5411 92.3024L97.539 92.3066L98.1629 92.624ZM94.1309 96.848L93.7872 96.2382L93.7824 96.2409L94.1309 96.848ZM92.9789 92.384L92.4371 91.9407L92.4311 91.9482L92.9789 92.384ZM92.9789 80.048L92.4322 80.4853L92.4371 80.4913L92.9789 80.048ZM83.1869 80.048L83.7287 80.4913L83.7335 80.4853L83.1869 80.048ZM83.1389 92.384L82.591 92.8198L82.5971 92.8273L83.1389 92.384ZM88.0829 97.636C85.8821 97.636 83.9717 97.1632 82.3306 96.2382L81.6432 97.4578C83.5221 98.5168 85.6756 99.036 88.0829 99.036V97.636ZM82.3354 96.2409C80.7266 95.3174 79.4747 94.0088 78.5743 92.298L77.3354 92.95C78.355 94.8872 79.7911 96.3946 81.6384 97.4551L82.3354 96.2409ZM78.581 92.311C77.7093 90.5675 77.2629 88.534 77.2629 86.192H75.8629C75.8629 88.714 76.3445 90.9685 77.3288 92.937L78.581 92.311ZM77.2629 86.192C77.2629 83.816 77.71 81.785 78.5788 80.0774L77.331 79.4426C76.3437 81.383 75.8629 83.64 75.8629 86.192H77.2629ZM78.5766 80.0816C79.478 78.3389 80.7298 77.0168 82.3354 76.0951L81.6384 74.8809C79.7879 75.9432 78.3517 77.4691 77.3331 79.4384L78.5766 80.0816ZM82.3306 76.0978C83.9717 75.1728 85.8821 74.7 88.0829 74.7V73.3C85.6756 73.3 83.5221 73.8192 81.6432 74.8782L82.3306 76.0978ZM88.0829 74.7C90.2839 74.7 92.176 75.1729 93.7824 76.0951L94.4794 74.8809C92.6297 73.8191 90.4898 73.3 88.0829 73.3V74.7ZM93.7872 76.0978C95.4221 77.0193 96.6694 78.3383 97.5368 80.073L98.789 79.4469C97.8003 77.4697 96.3597 75.9407 94.4746 74.8782L93.7872 76.0978ZM97.5434 80.086C98.4411 81.7916 98.9029 83.8195 98.9029 86.192H100.303C100.303 83.6365 99.8046 81.3764 98.7823 79.434L97.5434 80.086ZM98.9029 86.192C98.9029 88.5305 98.4419 90.5609 97.5411 92.3024L98.7846 92.9456C99.8039 90.9751 100.303 88.7175 100.303 86.192H98.9029ZM97.539 92.3066C96.6727 94.0093 95.4254 95.3148 93.7872 96.2382L94.4746 97.4578C96.3564 96.3971 97.7971 94.8867 98.7868 92.9414L97.539 92.3066ZM93.7824 96.2409C92.176 97.1631 90.2839 97.636 88.0829 97.636V99.036C90.4898 99.036 92.6297 98.5169 94.4794 97.4551L93.7824 96.2409ZM88.0829 95.196C90.3946 95.196 92.2479 94.4274 93.5267 92.8198L92.4311 91.9482C91.4699 93.1566 90.0591 93.796 88.0829 93.796V95.196ZM93.5206 92.8273C94.8149 91.2454 95.4069 88.9966 95.4069 86.192H94.0069C94.0069 88.8274 93.4468 90.7066 92.4371 91.9407L93.5206 92.8273ZM95.4069 86.192C95.4069 83.417 94.8139 81.1854 93.5206 79.6047L92.4371 80.4913C93.4479 81.7266 94.0069 83.591 94.0069 86.192H95.4069ZM93.5255 79.6107C92.2203 77.9792 90.3727 77.188 88.0829 77.188V78.588C90.0171 78.588 91.4334 79.2367 92.4323 80.4853L93.5255 79.6107ZM88.0829 77.188C85.7931 77.188 83.9454 77.9792 82.6403 79.6107L83.7335 80.4853C84.7323 79.2367 86.1487 78.588 88.0829 78.588V77.188ZM82.6451 79.6047C81.3519 81.1854 80.7589 83.417 80.7589 86.192H82.1589C82.1589 83.591 82.7179 81.7266 83.7286 80.4913L82.6451 79.6047ZM80.7589 86.192C80.7589 88.993 81.3333 91.2386 82.5911 92.8198L83.6867 91.9482C82.7045 90.7134 82.1589 88.831 82.1589 86.192H80.7589ZM82.5971 92.8273C83.9064 94.4275 85.7706 95.196 88.0829 95.196V93.796C86.1071 93.796 84.6754 93.1565 83.6806 91.9407L82.5971 92.8273ZM125.353 97.664L125.827 98.1784L125.829 98.177L125.353 97.664ZM121.801 97.616L121.306 98.111L121.315 98.1201L121.324 98.129L121.801 97.616ZM119.977 79.328L119.437 79.7744L119.446 79.7851L119.977 79.328ZM111.625 79.76L111.123 79.2717L111.123 79.2717L111.625 79.76ZM109.177 97.616L108.7 97.103L108.691 97.1119L108.682 97.121L109.177 97.616ZM105.673 97.616L106.149 97.103L106.149 97.103L105.673 97.616ZM105.673 74.768L106.149 75.281L106.15 75.2797L105.673 74.768ZM109.129 74.72L108.634 75.215L108.634 75.215L109.129 74.72ZM109.753 78.32H109.053L110.367 78.6552L109.753 78.32ZM112.969 75.104L112.638 74.4867L112.638 74.4867L112.969 75.104ZM117.625 74.7C120.294 74.7 122.174 75.4474 123.401 76.8289C124.643 78.2262 125.325 80.3928 125.325 83.456H126.725C126.725 80.2152 126.007 77.6538 124.448 75.8991C122.875 74.1286 120.555 73.3 117.625 73.3V74.7ZM125.325 83.456V95.936H126.725V83.456H125.325ZM125.325 95.936C125.325 96.5203 125.153 96.8941 124.876 97.151L125.829 98.177C126.448 97.6019 126.725 96.8237 126.725 95.936H125.325ZM124.878 97.1496C124.631 97.3772 124.232 97.54 123.577 97.54V98.94C124.457 98.94 125.242 98.7188 125.827 98.1784L124.878 97.1496ZM123.577 97.54C122.979 97.54 122.57 97.3752 122.277 97.103L121.324 98.129C121.927 98.6888 122.702 98.94 123.577 98.94V97.54ZM122.296 97.121C122.036 96.8616 121.877 96.4935 121.877 95.936H120.477C120.477 96.7865 120.733 97.5384 121.306 98.111L122.296 97.121ZM121.877 95.936V83.696H120.477V95.936H121.877ZM121.877 83.696C121.877 81.6416 121.467 79.9842 120.507 78.8709L119.446 79.7851C120.087 80.5278 120.477 81.7824 120.477 83.696H121.877ZM120.516 78.8817C119.569 77.7381 118.118 77.236 116.329 77.236V78.636C117.868 78.636 118.848 79.0619 119.437 79.7743L120.516 78.8817ZM116.329 77.236C114.219 77.236 112.459 77.8997 111.123 79.2717L112.126 80.2483C113.158 79.1883 114.535 78.636 116.329 78.636V77.236ZM111.123 79.2717C109.786 80.6445 109.149 82.4657 109.149 84.656H110.549C110.549 82.7503 111.095 81.3075 112.126 80.2483L111.123 79.2717ZM109.149 84.656V95.936H110.549V84.656H109.149ZM109.149 95.936C109.149 96.4777 108.984 96.84 108.7 97.103L109.653 98.129C110.266 97.56 110.549 96.8023 110.549 95.936H109.149ZM108.682 97.121C108.428 97.3746 108.048 97.54 107.449 97.54V98.94C108.321 98.94 109.093 98.6894 109.672 98.111L108.682 97.121ZM107.449 97.54C106.851 97.54 106.442 97.3752 106.149 97.103L105.196 98.129C105.799 98.6888 106.574 98.94 107.449 98.94V97.54ZM106.149 97.103C105.866 96.84 105.701 96.4777 105.701 95.936H104.301C104.301 96.8023 104.584 97.56 105.196 98.129L106.149 97.103ZM105.701 95.936V76.4H104.301V95.936H105.701ZM105.701 76.4C105.701 75.9012 105.859 75.5506 106.149 75.281L105.196 74.255C104.591 74.8174 104.301 75.5548 104.301 76.4H105.701ZM106.15 75.2797C106.491 74.962 106.908 74.796 107.449 74.796V73.396C106.581 73.396 105.815 73.678 105.195 74.2563L106.15 75.2797ZM107.449 74.796C108.006 74.796 108.374 74.9555 108.634 75.215L109.624 74.225C109.051 73.6525 108.299 73.396 107.449 73.396V74.796ZM108.634 75.215C108.899 75.4807 109.053 75.837 109.053 76.352H110.453C110.453 75.523 110.19 74.7913 109.624 74.225L108.634 75.215ZM109.053 76.352V78.32H110.453V76.352H109.053ZM110.367 78.6552C111.072 77.3634 112.047 76.3911 113.299 75.7212L112.638 74.4867C111.139 75.2889 109.969 76.4606 109.138 77.9848L110.367 78.6552ZM113.299 75.7212C114.563 75.0452 115.999 74.7 117.625 74.7V73.3C115.794 73.3 114.127 73.6908 112.638 74.4867L113.299 75.7212ZM144.129 94.544L144.192 93.8467L144.179 93.8458L144.129 94.544ZM145.617 95.12L145.097 95.5883L145.121 95.6157L145.149 95.6403L145.617 95.12ZM145.329 97.856L145.717 98.4385L145.725 98.4328L145.329 97.856ZM143.169 98.24L143.117 98.9381L143.122 98.9384L143.169 98.24ZM141.873 98.144L141.925 97.4459L141.925 97.4459L141.873 98.144ZM136.065 95.792L135.547 96.2629L135.552 96.2688L136.065 95.792ZM134.145 78.32H134.845V77.62H134.145V78.32ZM129.681 75.104L130.152 75.622L130.154 75.62L129.681 75.104ZM134.145 74.576V75.276H134.845V74.576H134.145ZM134.769 67.904L134.293 67.391L134.283 67.3999L134.274 67.409L134.769 67.904ZM138.993 74.576H138.293V75.276H138.993V74.576ZM145.281 75.104L144.786 75.599L144.808 75.6214L144.833 75.6418L145.281 75.104ZM145.281 77.84L144.833 77.3022L144.821 77.3119L144.81 77.322L145.281 77.84ZM138.993 78.32V77.62H138.293V78.32H138.993ZM139.905 93.248L139.375 93.7055L139.381 93.7123L139.387 93.7189L139.905 93.248ZM142.785 94.448L142.733 95.146L142.735 95.1462L142.785 94.448ZM144.066 95.2411C144.7 95.2988 144.982 95.4615 145.097 95.5883L146.137 94.6517C145.675 94.1385 144.966 93.9172 144.192 93.8469L144.066 95.2411ZM145.149 95.6403C145.284 95.7622 145.397 95.9664 145.397 96.368H146.797C146.797 95.6816 146.59 95.0538 146.085 94.5997L145.149 95.6403ZM145.397 96.368C145.397 96.7858 145.248 97.0624 144.932 97.2792L145.725 98.4328C146.434 97.9456 146.797 97.2302 146.797 96.368H145.397ZM144.941 97.2736C144.65 97.4676 144.115 97.6015 143.215 97.5416L143.122 98.9384C144.142 99.0065 145.048 98.8844 145.717 98.4384L144.941 97.2736ZM143.221 97.5419L141.925 97.4459L141.821 98.8421L143.117 98.9381L143.221 97.5419ZM141.925 97.4459C139.441 97.2619 137.698 96.5195 136.577 95.3152L135.552 96.2688C136.992 97.8165 139.121 98.6421 141.821 98.8421L141.925 97.4459ZM136.583 95.3211C135.462 94.088 134.845 92.2201 134.845 89.6H133.445C133.445 92.4199 134.108 94.68 135.547 96.2629L136.583 95.3211ZM134.845 89.6V78.32H133.445V89.6H134.845ZM134.145 77.62H131.265V79.02H134.145V77.62ZM131.265 77.62C130.649 77.62 130.319 77.4818 130.145 77.3282C129.988 77.1888 129.853 76.9407 129.853 76.448H128.453C128.453 77.2033 128.67 77.8912 129.217 78.3758C129.747 78.8462 130.472 79.02 131.265 79.02V77.62ZM129.853 76.448C129.853 76.0242 129.976 75.7817 130.152 75.622L129.21 74.586C128.682 75.0663 128.453 75.7198 128.453 76.448H129.853ZM130.154 75.62C130.375 75.4175 130.716 75.276 131.265 75.276V73.876C130.47 73.876 129.755 74.0865 129.208 74.588L130.154 75.62ZM131.265 75.276H134.145V73.876H131.265V75.276ZM134.845 74.576V69.632H133.445V74.576H134.845ZM134.845 69.632C134.845 69.0324 135.01 68.6526 135.264 68.399L134.274 67.409C133.695 67.9874 133.445 68.7596 133.445 69.632H134.845ZM135.245 68.417C135.538 68.1448 135.947 67.98 136.545 67.98V66.58C135.67 66.58 134.895 66.8312 134.293 67.391L135.245 68.417ZM136.545 67.98C137.142 67.98 137.551 68.1448 137.845 68.417L138.797 67.391C138.194 66.8312 137.419 66.58 136.545 66.58V67.98ZM137.845 68.417C138.121 68.6739 138.293 69.0477 138.293 69.632H139.693C139.693 68.7443 139.417 67.9661 138.797 67.391L137.845 68.417ZM138.293 69.632V74.576H139.693V69.632H138.293ZM138.993 75.276H143.745V73.876H138.993V75.276ZM143.745 75.276C144.298 75.276 144.606 75.419 144.786 75.599L145.776 74.609C145.252 74.085 144.536 73.876 143.745 73.876V75.276ZM144.833 75.6418C145.032 75.8077 145.157 76.0444 145.157 76.448H146.557C146.557 75.6996 146.298 75.0403 145.729 74.5662L144.833 75.6418ZM145.157 76.448C145.157 76.8976 145.023 77.1439 144.833 77.3022L145.729 78.3778C146.307 77.8961 146.557 77.2144 146.557 76.448H145.157ZM144.81 77.322C144.632 77.4843 144.314 77.62 143.745 77.62V79.02C144.519 79.02 145.226 78.8357 145.752 78.358L144.81 77.322ZM143.745 77.62H138.993V79.02H143.745V77.62ZM138.293 78.32V89.936H139.693V78.32H138.293ZM138.293 89.936C138.293 91.5108 138.607 92.8163 139.375 93.7055L140.435 92.7905C139.987 92.2717 139.693 91.3692 139.693 89.936H138.293ZM139.387 93.7189C140.184 94.596 141.338 95.0414 142.733 95.146L142.837 93.75C141.672 93.6626 140.905 93.308 140.423 92.7771L139.387 93.7189ZM142.735 95.1462L144.079 95.2422L144.179 93.8458L142.835 93.7498L142.735 95.1462ZM149.723 86.672L149.25 87.188L149.262 87.1992L149.275 87.2098L149.723 86.672ZM149.723 83.792L150.196 84.308L150.196 84.308L149.723 83.792ZM163.307 83.792L162.834 84.308L162.834 84.308L163.307 83.792ZM163.307 86.672L163.755 87.2098L163.768 87.1992L163.78 87.188L163.307 86.672ZM151.403 86.452C150.755 86.452 150.381 86.3097 150.171 86.1342L149.275 87.2098C149.832 87.6743 150.578 87.852 151.403 87.852V86.452ZM150.196 86.156C149.981 85.959 149.847 85.6797 149.847 85.232H148.447C148.447 86.0003 148.697 86.681 149.25 87.188L150.196 86.156ZM149.847 85.232C149.847 84.7843 149.981 84.505 150.196 84.308L149.25 83.276C148.697 83.783 148.447 84.4637 148.447 85.232H149.847ZM150.196 84.308C150.406 84.1155 150.77 83.964 151.403 83.964V82.564C150.564 82.564 149.808 82.7645 149.25 83.276L150.196 84.308ZM151.403 83.964H161.627V82.564H151.403V83.964ZM161.627 83.964C162.26 83.964 162.624 84.1155 162.834 84.308L163.78 83.276C163.222 82.7645 162.466 82.564 161.627 82.564V83.964ZM162.834 84.308C163.049 84.505 163.183 84.7843 163.183 85.232H164.583C164.583 84.4637 164.333 83.783 163.78 83.276L162.834 84.308ZM163.183 85.232C163.183 85.6797 163.049 85.959 162.834 86.156L163.78 87.188C164.333 86.681 164.583 86.0003 164.583 85.232H163.183ZM162.859 86.1342C162.648 86.3097 162.274 86.452 161.627 86.452V87.852C162.451 87.852 163.197 87.6743 163.755 87.2098L162.859 86.1342ZM161.627 86.452H151.403V87.852H161.627V86.452ZM171.357 97.376L170.844 97.8523L170.862 97.8713L170.881 97.889L171.357 97.376ZM171.357 64.832L170.862 64.337L170.862 64.337L171.357 64.832ZM192.525 64.688L192.052 65.204L192.062 65.2134L192.073 65.2224L192.525 64.688ZM192.525 67.664L192.973 68.2018L192.977 68.1984L192.525 67.664ZM175.581 68.144V67.444H174.881V68.144H175.581ZM175.581 78.8H174.881V79.5H175.581V78.8ZM191.565 79.328L191.092 79.844L191.102 79.8534L191.113 79.8624L191.565 79.328ZM191.565 82.304L191.113 81.7696L191.102 81.7786L191.092 81.788L191.565 82.304ZM175.581 82.832V82.132H174.881V82.832H175.581ZM175.581 94.016H174.881V94.716H175.581V94.016ZM192.525 97.472L192.073 96.9376L192.062 96.9466L192.052 96.956L192.525 97.472ZM173.181 97.3C172.542 97.3 172.121 97.1301 171.833 96.863L170.881 97.889C171.489 98.4539 172.283 98.7 173.181 98.7V97.3ZM171.87 96.8997C171.598 96.6066 171.433 96.1974 171.433 95.6H170.033C170.033 96.4746 170.284 97.2494 170.844 97.8523L171.87 96.8997ZM171.433 95.6V66.56H170.033V95.6H171.433ZM171.433 66.56C171.433 65.9604 171.598 65.5806 171.852 65.327L170.862 64.337C170.283 64.9154 170.033 65.6876 170.033 66.56H171.433ZM171.852 65.327C172.142 65.0372 172.556 64.86 173.181 64.86V63.46C172.269 63.46 171.468 63.7307 170.862 64.337L171.852 65.327ZM173.181 64.86H190.845V63.46H173.181V64.86ZM190.845 64.86C191.478 64.86 191.842 65.0115 192.052 65.204L192.998 64.172C192.44 63.6605 191.684 63.46 190.845 63.46V64.86ZM192.073 65.2224C192.304 65.4176 192.449 65.7021 192.449 66.176H193.849C193.849 65.3699 193.578 64.6623 192.977 64.1536L192.073 65.2224ZM192.449 66.176C192.449 66.6499 192.303 66.9344 192.073 67.1296L192.977 68.1984C193.578 67.6896 193.849 66.9821 193.849 66.176H192.449ZM192.077 67.1262C191.866 67.3017 191.492 67.444 190.845 67.444V68.844C191.67 68.844 192.416 68.6663 192.973 68.2018L192.077 67.1262ZM190.845 67.444H175.581V68.844H190.845V67.444ZM174.881 68.144V78.8H176.281V68.144H174.881ZM175.581 79.5H189.885V78.1H175.581V79.5ZM189.885 79.5C190.518 79.5 190.882 79.6515 191.092 79.844L192.038 78.812C191.48 78.3005 190.724 78.1 189.885 78.1V79.5ZM191.113 79.8624C191.344 80.0576 191.489 80.3421 191.489 80.816H192.889C192.889 80.0099 192.618 79.3024 192.017 78.7936L191.113 79.8624ZM191.489 80.816C191.489 81.2899 191.344 81.5743 191.113 81.7696L192.017 82.8384C192.618 82.3296 192.889 81.6221 192.889 80.816H191.489ZM191.092 81.788C190.882 81.9805 190.518 82.132 189.885 82.132V83.532C190.724 83.532 191.48 83.3315 192.038 82.82L191.092 81.788ZM189.885 82.132H175.581V83.532H189.885V82.132ZM174.881 82.832V94.016H176.281V82.832H174.881ZM175.581 94.716H190.845V93.316H175.581V94.716ZM190.845 94.716C191.53 94.716 191.913 94.8646 192.118 95.0403C192.303 95.1979 192.449 95.4673 192.449 95.984H193.849C193.849 95.1887 193.611 94.4741 193.028 93.9757C192.465 93.4954 191.696 93.316 190.845 93.316V94.716ZM192.449 95.984C192.449 96.4579 192.303 96.7424 192.073 96.9376L192.977 98.0064C193.578 97.4976 193.849 96.7901 193.849 95.984H192.449ZM192.052 96.956C191.842 97.1485 191.478 97.3 190.845 97.3V98.7C191.684 98.7 192.44 98.4995 192.998 97.988L192.052 96.956ZM190.845 97.3H173.181V98.7H190.845V97.3ZM218.587 97.664L219.062 98.1784L219.063 98.177L218.587 97.664ZM215.035 97.616L214.54 98.111L214.549 98.1201L214.559 98.129L215.035 97.616ZM213.211 79.328L212.672 79.7744L212.681 79.7851L213.211 79.328ZM204.859 79.76L204.357 79.2717L204.357 79.2717L204.859 79.76ZM202.411 97.616L201.935 97.103L201.925 97.1119L201.916 97.121L202.411 97.616ZM198.907 97.616L199.383 97.103L199.383 97.103L198.907 97.616ZM198.907 74.768L199.383 75.281L199.385 75.2797L198.907 74.768ZM202.363 74.72L201.868 75.215L201.868 75.215L202.363 74.72ZM202.987 78.32H202.287L203.602 78.6552L202.987 78.32ZM206.203 75.104L205.873 74.4867L205.873 74.4867L206.203 75.104ZM210.859 74.7C213.528 74.7 215.408 75.4474 216.636 76.8289C217.877 78.2262 218.559 80.3928 218.559 83.456H219.959C219.959 80.2152 219.241 77.6538 217.682 75.8991C216.11 74.1286 213.79 73.3 210.859 73.3V74.7ZM218.559 83.456V95.936H219.959V83.456H218.559ZM218.559 95.936C218.559 96.5203 218.387 96.8941 218.111 97.151L219.063 98.177C219.683 97.6019 219.959 96.8237 219.959 95.936H218.559ZM218.112 97.1496C217.866 97.3772 217.467 97.54 216.811 97.54V98.94C217.691 98.94 218.476 98.7188 219.062 98.1784L218.112 97.1496ZM216.811 97.54C216.214 97.54 215.804 97.3752 215.511 97.103L214.559 98.129C215.162 98.6888 215.936 98.94 216.811 98.94V97.54ZM215.53 97.121C215.271 96.8616 215.111 96.4935 215.111 95.936H213.711C213.711 96.7865 213.967 97.5384 214.54 98.111L215.53 97.121ZM215.111 95.936V83.696H213.711V95.936H215.111ZM215.111 83.696C215.111 81.6416 214.701 79.9842 213.741 78.8709L212.681 79.7851C213.321 80.5278 213.711 81.7824 213.711 83.696H215.111ZM213.75 78.8817C212.804 77.7381 211.352 77.236 209.563 77.236V78.636C211.102 78.636 212.082 79.0619 212.672 79.7743L213.75 78.8817ZM209.563 77.236C207.453 77.236 205.693 77.8997 204.357 79.2717L205.361 80.2483C206.393 79.1883 207.769 78.636 209.563 78.636V77.236ZM204.357 79.2717C203.021 80.6445 202.383 82.4657 202.383 84.656H203.783C203.783 82.7503 204.329 81.3075 205.361 80.2483L204.357 79.2717ZM202.383 84.656V95.936H203.783V84.656H202.383ZM202.383 95.936C202.383 96.4777 202.218 96.84 201.935 97.103L202.887 98.129C203.5 97.56 203.783 96.8023 203.783 95.936H202.383ZM201.916 97.121C201.662 97.3746 201.283 97.54 200.683 97.54V98.94C201.555 98.94 202.328 98.6894 202.906 98.111L201.916 97.121ZM200.683 97.54C200.086 97.54 199.676 97.3752 199.383 97.103L198.431 98.129C199.034 98.6888 199.808 98.94 200.683 98.94V97.54ZM199.383 97.103C199.1 96.84 198.935 96.4777 198.935 95.936H197.535C197.535 96.8023 197.818 97.56 198.431 98.129L199.383 97.103ZM198.935 95.936V76.4H197.535V95.936H198.935ZM198.935 76.4C198.935 75.9012 199.093 75.5506 199.383 75.281L198.431 74.255C197.825 74.8174 197.535 75.5548 197.535 76.4H198.935ZM199.385 75.2797C199.725 74.962 200.142 74.796 200.683 74.796V73.396C199.816 73.396 199.049 73.678 198.429 74.2563L199.385 75.2797ZM200.683 74.796C201.24 74.796 201.609 74.9555 201.868 75.215L202.858 74.225C202.285 73.6525 201.534 73.396 200.683 73.396V74.796ZM201.868 75.215C202.134 75.4807 202.287 75.837 202.287 76.352H203.687C203.687 75.523 203.424 74.7913 202.858 74.225L201.868 75.215ZM202.287 76.352V78.32H203.687V76.352H202.287ZM203.602 78.6552C204.306 77.3634 205.281 76.3911 206.533 75.7212L205.873 74.4867C204.373 75.2889 203.204 76.4606 202.372 77.9848L203.602 78.6552ZM206.533 75.7212C207.797 75.0452 209.234 74.7 210.859 74.7V73.3C209.028 73.3 207.361 73.6908 205.873 74.4867L206.533 75.7212ZM246.819 64.544L247.296 64.031L247.296 64.031L246.819 64.544ZM246.819 97.616L246.343 97.103L246.333 97.1119L246.324 97.121L246.819 97.616ZM243.315 97.616L242.82 98.111L242.829 98.1201L242.839 98.129L243.315 97.616ZM242.691 93.968H243.391L242.065 93.655L242.691 93.968ZM239.619 97.232L239.956 97.8461L239.967 97.8398L239.619 97.232ZM229.539 96.8L229.156 97.3861L229.162 97.3896L229.539 96.8ZM225.843 92.48L225.209 92.7754L225.213 92.7843L225.843 92.48ZM225.843 79.712L225.215 79.4033L225.211 79.4123L225.843 79.712ZM229.539 75.488L229.913 76.0796L229.913 76.0796L229.539 75.488ZM239.571 75.152L239.218 75.7561L239.226 75.7612L239.235 75.766L239.571 75.152ZM242.643 78.32L242.02 78.6388L243.343 78.32H242.643ZM243.267 64.544L243.742 65.0584L243.744 65.057L243.267 64.544ZM240.963 92.336L240.417 91.8987L240.417 91.8987L240.963 92.336ZM240.963 80.048L240.411 80.4778L240.417 80.4853L240.963 80.048ZM231.171 80.048L230.631 79.6034L230.629 79.6047L231.171 80.048ZM231.219 92.288L230.669 92.721L230.674 92.7267L231.219 92.288ZM245.043 64.62C245.641 64.62 246.05 64.7848 246.343 65.057L247.296 64.031C246.693 63.4712 245.918 63.22 245.043 63.22V64.62ZM246.343 65.057C246.626 65.32 246.791 65.6823 246.791 66.224H248.191C248.191 65.3577 247.908 64.6 247.296 64.031L246.343 65.057ZM246.791 66.224V95.888H248.191V66.224H246.791ZM246.791 95.888C246.791 96.4723 246.62 96.8461 246.343 97.103L247.296 98.129C247.915 97.5539 248.191 96.7757 248.191 95.888H246.791ZM246.324 97.121C246.071 97.3746 245.691 97.54 245.091 97.54V98.94C245.964 98.94 246.736 98.6894 247.314 98.111L246.324 97.121ZM245.091 97.54C244.494 97.54 244.085 97.3752 243.792 97.103L242.839 98.129C243.442 98.6888 244.217 98.94 245.091 98.94V97.54ZM243.81 97.121C243.557 96.8674 243.391 96.4876 243.391 95.888H241.991C241.991 96.7604 242.242 97.5326 242.82 98.111L243.81 97.121ZM243.391 95.888V93.968H241.991V95.888H243.391ZM242.065 93.655C241.422 94.9416 240.494 95.926 239.272 96.6242L239.967 97.8398C241.433 97.002 242.553 95.8104 243.317 94.281L242.065 93.655ZM239.283 96.618C238.057 97.2897 236.623 97.636 234.963 97.636V99.036C236.823 99.036 238.494 98.6463 239.955 97.846L239.283 96.618ZM234.963 97.636C233.072 97.636 231.397 97.1578 229.917 96.2104L229.162 97.3896C230.882 98.4902 232.822 99.036 234.963 99.036V97.636ZM229.922 96.2139C228.471 95.2664 227.32 93.9289 226.474 92.1757L225.213 92.7843C226.158 94.7431 227.471 96.2856 229.156 97.3861L229.922 96.2139ZM226.478 92.1846C225.664 90.4357 225.247 88.4114 225.247 86.096H223.847C223.847 88.5806 224.295 90.8123 225.209 92.7754L226.478 92.1846ZM225.247 86.096C225.247 83.7467 225.664 81.7248 226.476 80.0117L225.211 79.4123C224.294 81.3472 223.847 83.5813 223.847 86.096H225.247ZM226.472 80.0206C227.316 78.3012 228.465 76.996 229.913 76.0796L229.165 74.8964C227.478 75.964 226.162 77.4748 225.215 79.4034L226.472 80.0206ZM229.913 76.0796C231.358 75.1656 233.034 74.7 234.963 74.7V73.3C232.797 73.3 230.856 73.8264 229.165 74.8964L229.913 76.0796ZM234.963 74.7C236.619 74.7 238.029 75.0602 239.218 75.7561L239.925 74.5479C238.49 73.7078 236.828 73.3 234.963 73.3V74.7ZM239.235 75.766C240.455 76.4339 241.379 77.3866 242.02 78.6388L243.266 78.0012C242.499 76.5014 241.376 75.342 239.907 74.538L239.235 75.766ZM243.343 78.32V66.128H241.943V78.32H243.343ZM243.343 66.128C243.343 65.6116 243.496 65.2851 243.742 65.0584L242.792 64.0296C242.206 64.5709 241.943 65.3004 241.943 66.128H243.343ZM243.744 65.057C244.037 64.7848 244.446 64.62 245.043 64.62V63.22C244.169 63.22 243.394 63.4712 242.791 64.031L243.744 65.057ZM236.115 95.196C238.377 95.196 240.207 94.402 241.51 92.7733L240.417 91.8987C239.416 93.15 238.013 93.796 236.115 93.796V95.196ZM241.51 92.7733C242.797 91.1648 243.391 88.9388 243.391 86.192H241.991C241.991 88.7572 241.434 90.6272 240.417 91.8987L241.51 92.7733ZM243.391 86.192C243.391 83.4452 242.797 81.2192 241.51 79.6107L240.417 80.4853C241.434 81.7568 241.991 83.6268 241.991 86.192H243.391ZM241.516 79.6182C240.241 77.9795 238.405 77.188 236.115 77.188V78.588C238.05 78.588 239.445 79.2365 240.411 80.4778L241.516 79.6182ZM236.115 77.188C233.825 77.188 231.966 77.979 230.631 79.6034L231.712 80.4926C232.744 79.237 234.181 78.588 236.115 78.588V77.188ZM230.629 79.6047C229.338 81.1828 228.743 83.3801 228.743 86.096H230.143C230.143 83.5639 230.7 81.7292 231.713 80.4913L230.629 79.6047ZM228.743 86.096C228.743 88.8195 229.358 91.0549 230.669 92.721L231.769 91.855C230.713 90.5131 230.143 88.6205 230.143 86.096H228.743ZM230.674 92.7267C232.005 94.3821 233.848 95.196 236.115 95.196V93.796C234.223 93.796 232.801 93.1379 231.765 91.8493L230.674 92.7267Z" fill="#DBE546"/>
<g clip-path="url(#clip0)">
<path d="M134.25 11H155.25C155.94 11 156.5 11.5601 156.5 12.25C156.5 12.9399 155.94 13.5 155.25 13.5H134.25C133.56 13.5 133 12.9399 133 12.25C133 11.5601 133.56 11 134.25 11Z" fill="#DCE546" stroke="#DBE546"/>
<path d="M148.25 17.5H134.25C133.284 17.5 132.5 18.284 132.5 19.25C132.5 20.216 133.284 21 134.25 21H148.25C149.216 21 150 20.216 150 19.25C150 18.284 149.216 17.5 148.25 17.5Z" fill="#DCE546"/>
<path d="M124.71 43.1519L124.71 43.1521C124.437 43.3799 124.095 43.5 123.75 43.5C123.535 43.5 123.315 43.4521 123.113 43.3587C122.586 43.113 122.25 42.5824 122.25 42V7C122.25 3.27757 125.278 0.25 129 0.25H160.5C164.222 0.25 167.25 3.27757 167.25 7V28C167.25 31.7224 164.222 34.75 160.5 34.75H134.884H134.793L134.723 34.8079L124.71 43.1519ZM125.25 38.2655V38.7993L125.66 38.4575L133.29 32.0981C133.56 31.8729 133.899 31.75 134.25 31.75H160.5C162.57 31.75 164.25 30.0664 164.25 28V7C164.25 4.93359 162.57 3.25 160.5 3.25H129C126.93 3.25 125.25 4.93359 125.25 7V38.2655Z" fill="#4338CA" stroke="#5046E5" stroke-width="0.5"/>
<g filter="url(#filter0_d)">
<path d="M174.344 50.8017L174.75 51.1266V50.6065V21C174.75 18.9336 173.07 17.25 171 17.25C170.172 17.25 169.5 16.5779 169.5 15.75C169.5 14.9221 170.172 14.25 171 14.25C174.722 14.25 177.75 17.2776 177.75 21V54.25C177.75 54.8253 177.421 55.3504 176.902 55.603C176.69 55.7023 176.468 55.75 176.25 55.75C175.917 55.75 175.584 55.639 175.31 55.4229C175.31 55.4227 175.31 55.4226 175.31 55.4224L167.04 48.8048L166.972 48.75H166.884H143C139.278 48.75 136.25 45.7224 136.25 42V40.25C136.25 39.4221 136.922 38.75 137.75 38.75C138.578 38.75 139.25 39.4221 139.25 40.25V42C139.25 44.0664 140.93 45.75 143 45.75H167.5C167.839 45.75 168.172 45.8672 168.436 46.0772L174.344 50.8017Z" fill="#DCE546" stroke="#DBE546" stroke-width="0.5"/>
</g>
</g>
<defs>
<filter id="filter0_d" x="132" y="14" width="50" height="50" filterUnits="userSpaceOnUse" color-interpolation-filters="sRGB">
<feFlood flood-opacity="0" result="BackgroundImageFix"/>
<feColorMatrix in="SourceAlpha" type="matrix" values="0 0 0 0 0 0 0 0 0 0 0 0 0 0 0 0 0 0 127 0"/>
<feOffset dy="4"/>
<feGaussianBlur stdDeviation="2"/>
<feColorMatrix type="matrix" values="0 0 0 0 0 0 0 0 0 0 0 0 0 0 0 0 0 0 0.25 0"/>
<feBlend mode="normal" in2="BackgroundImageFix" result="effect1_dropShadow"/>
<feBlend mode="normal" in="SourceGraphic" in2="effect1_dropShadow" result="shape"/>
</filter>
<clipPath id="clip0">
<rect width="56" height="56" fill="white" transform="translate(122)"/>
</clipPath>
</defs>
</svg>
